# File created by Blade
# Date/Time:  Tue Jan 27 19:58:31 2015
# Frame Rate: 120.000 fps
#------------------------------------------------------
:FULLY-SPECIFIED
:DEGREES
2662
root 7.674660 32.619481 3.024482 -0.535674 -23.358421 -14.881125
Spine 11.574284 17.192332 8.458967
Head -0.064214 -1.874787 6.601340
LeftShoulder -16.300503 0.753072 31.652362
LeftArm -4.287591 -6.302379 -80.264250
LeftForeArm -30.186037 -0.000000 123.587472
LeftHand 9.483894 -0.000000 -33.210363
LeftHandThumb1 -26.253704 0.000000 33.147579
RightShoulder -17.853171 -17.093704 -22.478877
RightArm 4.736750 2.026517 78.328494
RightForeArm -15.722752 -0.000000 17.120379
RightHand 19.426809 0.000000 5.001712
RightHandThumb1 -24.326973 -0.000000 -32.862282
LeftUpLeg 11.547043 12.087042 2.287970
LeftLeg -0.496435 -0.000000 0.000000
LeftFoot -23.060187 23.729753 -16.881169
LeftToeBase 20.304900 -0.000000 -0.000000
RightUpLeg -64.315441 -48.037000 -0.886478
RightLeg 93.404783 -0.000000 -0.000000
RightFoot 28.388590 -25.798888 22.005806
RightToeBase 12.221155 -0.000000 -0.000000
2663
root 7.674460 32.625565 2.998527 -0.405762 -23.228280 -14.878671
Spine 11.578087 17.072806 8.312192
Head -0.347698 -1.770201 6.672247
LeftShoulder -16.311774 0.682976 31.671417
LeftArm -4.243366 -6.397787 -80.207615
LeftForeArm -30.206476 -0.000000 123.659976
LeftHand 9.389963 -0.000000 -33.273640
LeftHandThumb1 -26.253704 0.000000 33.147579
RightShoulder -17.859336 -17.016469 -22.444462
RightArm 4.787133 2.078171 78.408751
RightForeArm -15.680995 -0.000000 17.189196
RightHand 19.488535 0.000000 4.981664
RightHandThumb1 -24.326973 -0.000000 -32.862282
LeftUpLeg 11.267581 11.971162 2.259309
LeftLeg -0.354088 -0.000000 0.000000
LeftFoot -23.086319 23.782964 -16.897803
LeftToeBase 20.319727 -0.000000 -0.000000
RightUpLeg -64.273832 -48.067999 -0.943731
RightLeg 93.332683 -0.000000 -0.000000
RightFoot 28.301669 -25.883143 22.104089
RightToeBase 12.370254 -0.000000 -0.000000
2664
root 7.672047 32.631536 2.971357 -0.270707 -23.112708 -14.890460
Spine 11.599145 16.971281 8.175106
Head -0.678043 -1.702437 6.740094
LeftShoulder -16.310184 0.607146 31.702419
LeftArm -4.204282 -6.528176 -80.168930
LeftForeArm -30.188765 -0.000000 123.739429
LeftHand 9.402405 -0.000000 -33.331453
LeftHandThumb1 -26.253704 0.000000 33.147579
RightShoulder -17.820156 -16.891062 -22.449377
RightArm 4.738143 2.105833 78.500716
RightForeArm -15.613728 -0.000000 17.319925
RightHand 19.490861 -0.000000 5.009844
RightHandThumb1 -24.326973 -0.000000 -32.862282
LeftUpLeg 10.994697 11.894400 2.256196
LeftLeg -0.216480 -0.000000 0.000000
LeftFoot -23.092452 23.788190 -16.919529
LeftToeBase 20.298142 -0.000000 -0.000000
RightUpLeg -64.212850 -48.064933 -1.019922
RightLeg 93.292146 -0.000000 -0.000000
RightFoot 28.292400 -25.857906 22.117267
RightToeBase 11.970958 -0.000000 -0.000000
2665
root 7.667687 32.638848 2.943804 -0.138061 -22.991305 -14.908735
Spine 11.645650 16.867034 8.028053
Head -1.063570 -1.652323 6.823723
LeftShoulder -16.333897 0.480354 31.747467
LeftArm -4.207301 -6.643805 -80.129056
LeftForeArm -30.142101 -0.000000 123.841060
LeftHand 9.398435 -0.000000 -33.318889
LeftHandThumb1 -26.253704 0.000000 33.147579
RightShoulder -17.796304 -16.754165 -22.446469
RightArm 4.699689 2.148696 78.605868
RightForeArm -15.571629 -0.000000 17.455341
RightHand 19.413242 -0.000000 5.146764
RightHandThumb1 -24.326973 -0.000000 -32.862282
LeftUpLeg 10.726677 11.827680 2.263825
LeftLeg -0.081826 -0.000000 0.000000
LeftFoot -23.086756 23.810835 -16.904003
LeftToeBase 20.177170 -0.000000 -0.000000
RightUpLeg -64.094081 -48.068681 -1.133807
RightLeg 93.226911 -0.000000 -0.000000
RightFoot 28.239027 -25.972888 22.196932
RightToeBase 12.220014 -0.000000 -0.000000
2666
root 7.664597 32.647624 2.912044 0.033436 -22.829708 -14.932402
Spine 11.673637 16.780715 7.876961
Head -1.486176 -1.601070 6.899591
LeftShoulder -16.321919 0.377117 31.754197
LeftArm -4.137009 -6.760375 -80.074995
LeftForeArm -30.120762 -0.000000 123.970712
LeftHand 9.386090 -0.000000 -33.303370
LeftHandThumb1 -26.253704 0.000000 33.147579
RightShoulder -17.835142 -16.647128 -22.415727
RightArm 4.702250 2.254656 78.718137
RightForeArm -15.567374 0.000000 17.560216
RightHand 19.457933 -0.000000 5.114338
RightHandThumb1 -24.326973 -0.000000 -32.862282
LeftUpLeg 10.395507 11.709146 2.261346
LeftLeg 0.066565 -0.000000 -0.000000
LeftFoot -23.077328 23.861964 -16.879888
LeftToeBase 20.142737 -0.000000 -0.000000
RightUpLeg -64.006521 -48.103088 -1.240222
RightLeg 93.180472 -0.000000 -0.000000
RightFoot 28.223606 -25.984946 22.215010
RightToeBase 12.252683 -0.000000 -0.000000
2667
root 7.671193 32.654669 2.872304 0.205925 -22.668790 -14.964365
Spine 11.765105 16.592870 7.752512
Head -1.978579 -1.435180 6.896000
LeftShoulder -16.408059 0.344395 31.730309
LeftArm -4.006858 -6.900047 -80.082579
LeftForeArm -30.134709 -0.000000 124.107586
LeftHand 9.374485 0.000000 -33.199079
LeftHandThumb1 -26.253704 0.000000 33.147579
RightShoulder -17.709261 -16.360025 -22.514814
RightArm 4.556621 2.391544 78.830927
RightForeArm -15.520814 -0.000000 17.676928
RightHand 19.445413 -0.000000 5.292083
RightHandThumb1 -24.326973 -0.000000 -32.862282
LeftUpLeg 10.031817 11.646706 2.257401
LeftLeg 0.254805 -0.000000 -0.000000
LeftFoot -22.985753 23.902644 -16.688750
LeftToeBase 19.712631 -0.000000 -0.000000
RightUpLeg -63.910155 -48.120743 -1.362350
RightLeg 93.102732 -0.000000 -0.000000
RightFoot 28.318945 -26.002949 22.100971
RightToeBase 11.983949 -0.000000 -0.000000
2668
root 7.671675 32.662446 2.831648 0.417696 -22.528925 -14.979785
Spine 11.810553 16.523499 7.566960
Head -2.517709 -1.422749 6.970117
LeftShoulder -16.431460 0.237880 31.743202
LeftArm -3.915780 -7.055615 -80.042683
LeftForeArm -30.182020 -0.000000 124.242131
LeftHand 9.323341 -0.000000 -33.182477
LeftHandThumb1 -26.253704 0.000000 33.147579
RightShoulder -17.709825 -16.252689 -22.493755
RightArm 4.580737 2.494249 78.923184
RightForeArm -15.339686 -0.000000 17.865955
RightHand 19.227728 0.000000 5.686968
RightHandThumb1 -24.326973 -0.000000 -32.862282
LeftUpLeg 9.637713 11.655684 2.261135
LeftLeg 0.412334 -0.000000 -0.000000
LeftFoot -23.042549 23.833158 -16.781725
LeftToeBase 19.859466 -0.000000 -0.000000
RightUpLeg -63.844172 -48.096763 -1.496737
RightLeg 93.061520 -0.000000 -0.000000
RightFoot 28.258620 -26.076024 22.184856
RightToeBase 12.013233 -0.000000 -0.000000
2669
root 7.665187 32.671978 2.795221 0.570811 -22.330015 -14.990424
Spine 11.922775 16.418877 7.362573
Head -3.098046 -1.369023 7.077720
LeftShoulder -16.404402 0.063913 31.799316
LeftArm -3.904668 -7.253958 -80.005327
LeftForeArm -30.261956 -0.000000 124.394115
LeftHand 9.322794 -0.000000 -33.252839
LeftHandThumb1 -26.253704 0.000000 33.147579
RightShoulder -17.734049 -16.194744 -22.454177
RightArm 4.662929 2.566017 79.061558
RightForeArm -15.319577 -0.000000 17.944398
RightHand 19.327909 -0.000000 5.685302
RightHandThumb1 -24.326973 -0.000000 -32.862282
LeftUpLeg 9.320259 11.516916 2.270195
LeftLeg 0.545393 -0.000000 -0.000000
LeftFoot -23.017711 23.823715 -16.804447
LeftToeBase 19.850639 -0.000000 -0.000000
RightUpLeg -63.654150 -48.153318 -1.732961
RightLeg 93.051906 -0.000000 -0.000000
RightFoot 28.218609 -26.098775 22.148907
RightToeBase 12.194510 -0.000000 -0.000000
2670
root 7.659689 32.683614 2.752728 0.801867 -22.174867 -15.033095
Spine 11.978183 16.402703 7.168627
Head -3.662350 -1.367988 7.184539
LeftShoulder -16.362220 -0.115887 31.873470
LeftArm -3.883703 -7.411664 -80.044610
LeftForeArm -30.424441 -0.000000 124.576656
LeftHand 9.212913 -0.000000 -33.075952
LeftHandThumb1 -26.253704 0.000000 33.147579
RightShoulder -17.737655 -16.046701 -22.451642
RightArm 4.638860 2.636949 79.190635
RightForeArm -15.385610 -0.000000 17.951683
RightHand 19.261592 -0.000000 5.810950
RightHandThumb1 -24.326973 -0.000000 -32.862282
LeftUpLeg 8.950329 11.464267 2.298707
LeftLeg 0.637522 -0.000000 -0.000000
LeftFoot -22.947263 23.812366 -16.768416
LeftToeBase 19.766765 -0.000000 -0.000000
RightUpLeg -63.549584 -48.142713 -1.872021
RightLeg 93.020207 -0.000000 -0.000000
RightFoot 28.209939 -26.148991 22.071366
RightToeBase 11.920782 -0.000000 -0.000000
2671
root 7.650442 32.697145 2.707907 1.070863 -22.014967 -15.117526
Spine 12.031182 16.356514 6.983407
Head -4.310949 -1.333757 7.336803
LeftShoulder -16.383719 -0.205286 31.933460
LeftArm -3.775494 -7.592868 -80.075838
LeftForeArm -30.477711 -0.000000 124.751333
LeftHand 9.283460 -0.000000 -33.041474
LeftHandThumb1 -26.253704 0.000000 33.147579
RightShoulder -17.762850 -15.999738 -22.382325
RightArm 4.775618 2.639273 79.282083
RightForeArm -15.318905 0.000000 17.964969
RightHand 19.303187 -0.000000 5.796156
RightHandThumb1 -24.326973 -0.000000 -32.862282
LeftUpLeg 8.564692 11.408085 2.368393
LeftLeg 0.710988 -0.000000 -0.000000
LeftFoot -22.871499 23.845717 -16.683553
LeftToeBase 19.581694 -0.000000 -0.000000
RightUpLeg -63.436515 -48.140604 -1.962528
RightLeg 92.995791 -0.000000 -0.000000
RightFoot 28.158143 -26.160595 22.026558
RightToeBase 11.635779 -0.000000 -0.000000
2672
root 7.645139 32.709208 2.664563 1.322845 -21.818228 -15.172864
Spine 12.095331 16.298004 6.781651
Head -4.931678 -1.339835 7.454750
LeftShoulder -16.331534 -0.293271 32.014186
LeftArm -3.724496 -7.848299 -80.116251
LeftForeArm -30.508336 -0.000000 124.959506
LeftHand 9.281330 -0.000000 -32.953333
LeftHandThumb1 -26.253704 0.000000 33.147579
RightShoulder -17.752913 -15.885341 -22.379594
RightArm 4.829672 2.679911 79.395591
RightForeArm -15.295457 -0.000000 17.958834
RightHand 19.269518 0.000000 5.686961
RightHandThumb1 -24.326973 -0.000000 -32.862282
LeftUpLeg 8.173067 11.236793 2.388229
LeftLeg 0.788867 -0.000000 -0.000000
LeftFoot -22.815916 23.945685 -16.643043
LeftToeBase 19.576258 -0.000000 -0.000000
RightUpLeg -63.313493 -48.230128 -2.108659
RightLeg 92.981615 -0.000000 -0.000000
RightFoot 27.917302 -26.394112 22.277699
RightToeBase 12.169537 -0.000000 -0.000000
